<svg width="56" height="57" viewBox="0 0 56 57" fill="none" xmlns="http://www.w3.org/2000/svg">
<path d="M0.16333 0V49.0657C0.16333 52.4933 3.019 55.5295 7.2476 56.6086C8.30475 56.873 9.38937 57 10.4602 57C13.6729 57 16.7757 55.8363 18.7527 53.7628L56.0001 14.7049L0.16333 0Z" fill="#BCBCBC"/>
<path d="M4 10V46.7993C4 49.37 6.14176 51.6471 9.31321 52.4564C10.1061 52.6548 10.9195 52.75 11.7227 52.75C14.1322 52.75 16.4593 51.8772 17.942 50.3221L45.8776 21.0287L4 10Z" fill="#395BB0"/>
<path d="M4 10V46.7993C4 49.37 5.90378 51.6471 8.72285 52.4564C9.42762 52.6548 10.1507 52.75 10.8646 52.75C13.0064 52.75 15.0749 51.8772 16.3929 50.3221L41.2245 21.0287L4 10Z" fill="#002687"/>
<path d="M16.9 40.283C15.712 40.2754 14.5987 40.0483 13.5602 39.6016C12.5365 39.1404 11.6385 38.5113 10.8662 37.7144C10.1088 36.9028 9.51344 35.9604 9.08029 34.8869C8.66181 33.8135 8.45655 32.6535 8.46453 31.4069C8.4724 30.1749 8.69238 29.0323 9.12445 27.979C9.57129 26.9112 10.1786 25.9837 10.9463 25.1966C11.7288 24.3949 12.6348 23.7701 13.6643 23.322C14.6939 22.8739 15.81 22.6537 17.0126 22.6614C18.1419 22.6686 19.109 22.8214 19.9137 23.1199C20.7332 23.4185 21.5514 23.9077 22.3684 24.5876C22.5435 24.7354 22.6599 24.8755 22.7177 25.0079C22.7755 25.1403 22.8039 25.3018 22.8026 25.4924C22.8008 25.7711 22.6967 26.0051 22.4901 26.1945C22.2983 26.3839 22.0556 26.485 21.7622 26.4978C21.4834 26.5107 21.22 26.4137 20.972 26.2067C20.4324 25.734 19.87 25.371 19.285 25.1179C18.7146 24.865 17.9527 24.7354 16.9994 24.7293C16.1341 24.7238 15.319 24.8946 14.5541 25.2417C13.7892 25.5888 13.1114 26.0685 12.5208 26.6807C11.9449 27.2931 11.493 28.0089 11.1651 28.8281C10.8372 29.6327 10.6704 30.497 10.6645 31.421C10.6585 32.3596 10.8142 33.2406 11.1316 34.064C11.4491 34.8727 11.8919 35.5869 12.4599 36.2065C13.0426 36.8263 13.7142 37.3146 14.4746 37.6714C15.2351 38.0136 16.048 38.1875 16.9133 38.193C17.5586 38.1972 18.1752 38.1058 18.7631 37.9189C19.351 37.732 19.9174 37.4642 20.4623 37.1157L20.4873 33.1998L17.4514 33.1804C17.1287 33.1783 16.858 33.0813 16.6392 32.8892C16.4204 32.6971 16.312 32.4544 16.3139 32.1611C16.3157 31.8678 16.4273 31.6265 16.6485 31.4372C16.8697 31.248 17.1417 31.1544 17.4643 31.1564L21.5782 31.1827C21.9156 31.1849 22.1862 31.2966 22.3901 31.5179C22.5941 31.7246 22.695 31.9965 22.6929 32.3339L22.6593 37.5918C22.6583 37.7384 22.6281 37.8849 22.5685 38.0312C22.5236 38.1629 22.4348 38.287 22.3021 38.4035C21.5206 39.0439 20.6742 39.5224 19.7628 39.8393C18.8516 40.1415 17.8973 40.2894 16.9 40.283Z" fill="#C5C8D3"/>
</svg>